<?xml version="1.0" encoding="UTF-8"?><svg id="SmileyPattern" xmlns="http://www.w3.org/2000/svg" viewBox="0 0 62.14 62.14"><defs><style>.cls-1{fill:#fcea10;stroke:#1d1d1b;stroke-miterlimit:10;stroke-width:2px;}.cls-2{fill:#1d1d1b;stroke-width:0px;}</style></defs><g id="Laag_1-2"><circle class="cls-1" cx="31.07" cy="31.07" r="30.07"/><path class="cls-2" d="m21.19,25.88c3.22,0,3.22-5,0-5s-3.22,5,0,5h0Z"/><path class="cls-2" d="m39.25,25.88c3.22,0,3.22-5,0-5s-3.22,5,0,5h0Z"/><path class="cls-2" d="m10.59,34.72c2.46,6.64,8.03,10.83,14.57,13.06,3.48,1.19,7.05,1.91,10.7,1.2,3.24-.63,6.22-2.28,8.72-4.4,3.18-2.71,5.46-6.28,6.97-10.13.67-1.7-2.07-2.43-2.73-.75-2.18,5.53-6.58,10.6-12.44,12.25-3.18.9-6.26.41-9.38-.55-2.66-.82-5.22-1.95-7.51-3.54-2.8-1.96-4.98-4.68-6.17-7.89-.63-1.69-3.37-.96-2.73.75h0Z"/></g></svg>